<?xml version="1.0" encoding="UTF-8" standalone="no"?><!DOCTYPE svg PUBLIC "-//W3C//DTD SVG 1.1//EN" "http://www.w3.org/Graphics/SVG/1.1/DTD/svg11.dtd"><svg width="100%" height="100%" viewBox="0 0 663 263" version="1.1" xmlns="http://www.w3.org/2000/svg" xmlns:xlink="http://www.w3.org/1999/xlink" xml:space="preserve" style="fill-rule:evenodd;clip-rule:evenodd;stroke-linejoin:round;stroke-miterlimit:1.41421;"><rect id="Artboard1" x="0" y="0" width="662.48" height="262.28" style="fill:none;"/><g><path d="M63.492,191.439c-1.476,-2.457 -4.179,-4.623 -7.227,-3.621c-3.213,1.055 -5.069,3.863 -5.463,7.129c-0.418,3.457 1.788,5.459 4.729,6.732c0.9,0.391 2.388,0.613 3.599,0.335c1.984,-0.245 3.906,-1.26 4.898,-2.948c1.371,-2.338 0.788,-5.417 -0.536,-7.627Z" style="fill:#7d60a9;fill-rule:nonzero;"/><path d="M50.701,84.594c0.005,-0.348 -0.041,-0.706 -0.154,-1.071c-0.158,-0.511 -0.408,-0.922 -0.716,-1.251c-0.501,-0.754 -1.186,-1.375 -2.038,-1.737c-1.37,-0.583 -2.766,-0.603 -3.996,-0.199c-1.154,0.154 -2.225,0.707 -2.938,1.75c-0.411,0.602 -0.584,1.208 -0.613,1.824c-0.113,0.336 -0.209,0.686 -0.265,1.055c-0.216,1.427 0.139,3.164 0.847,4.406c0.863,1.509 2.307,1.77 3.913,1.644c1.411,-0.113 2.61,-0.685 3.495,-1.542c0.386,-0.204 0.76,-0.464 1.11,-0.785c1.16,-1.057 1.556,-2.607 1.355,-4.094Z" style="fill:#7d60a9;fill-rule:nonzero;"/><path d="M26.419,149.504c-0.591,-0.557 -1.303,-0.708 -2.012,-0.607c-0.677,-0.153 -1.399,-0.112 -2.04,0.167c-1.659,0.721 -2.195,2.726 -1.489,4.279c0.273,0.916 1.045,1.655 2.08,1.838c1.049,0.354 2.24,0.223 3.117,-0.558c1.273,-1.133 1.658,-3.878 0.344,-5.119Z" style="fill:#7d60a9;fill-rule:nonzero;"/><path d="M602.303,199.145c2.434,1.515 5.828,2.211 8.083,-0.072c2.38,-2.403 2.751,-5.75 1.612,-8.836c-1.205,-3.268 -4.079,-4.043 -7.279,-3.834c-0.978,0.062 -2.405,0.543 -3.355,1.341c-1.654,1.123 -2.902,2.903 -3.016,4.86c-0.155,2.705 1.769,5.179 3.955,6.541Z" style="fill:#ee2224;fill-rule:nonzero;"/><path d="M626.932,186.899c0.156,0.31 0.358,0.607 0.626,0.881c0.374,0.382 0.784,0.634 1.208,0.787c0.789,0.443 1.682,0.683 2.605,0.617c1.485,-0.106 2.737,-0.727 3.649,-1.645c0.957,-0.664 1.656,-1.644 1.815,-2.898c0.091,-0.721 -0.031,-1.342 -0.286,-1.902c-0.053,-0.352 -0.127,-0.707 -0.244,-1.059c-0.459,-1.369 -1.567,-2.754 -2.764,-3.535c-1.455,-0.951 -2.86,-0.524 -4.232,0.32c-1.204,0.742 -2.01,1.799 -2.409,2.967c-0.249,0.355 -0.462,0.758 -0.628,1.203c-0.55,1.469 -0.197,3.031 0.66,4.264Z" style="fill:#ee2224;fill-rule:nonzero;"/><path d="M621.744,209.338c0.779,0.227 1.483,0.035 2.067,-0.379c0.672,-0.17 1.296,-0.537 1.74,-1.078c1.148,-1.396 0.711,-3.428 -0.626,-4.486c-0.661,-0.692 -1.685,-0.996 -2.689,-0.69c-1.095,0.164 -2.095,0.825 -2.52,1.92c-0.616,1.59 0.293,4.207 2.028,4.713Z" style="fill:#ee2224;fill-rule:nonzero;"/><path d="M329.557,62.935c0.71,-1.527 0.868,-3.123 0.586,-4.63c-0.018,-0.269 -0.045,-0.543 -0.095,-0.819c-0.302,-1.714 -1.174,-2.931 -2.333,-3.698c-0.603,-0.604 -1.291,-1.137 -2.051,-1.559c-4.098,-2.272 -9.335,0.23 -9.779,4.934c-0.281,2.971 0.995,5.532 3.167,6.907c0.175,0.236 0.365,0.458 0.567,0.664c3.153,3.245 8.043,2.251 9.938,-1.799Z" style="fill:#31409a;fill-rule:nonzero;"/><path d="M241.482,197.338c-1.643,-2.916 -5.178,-4.42 -8.27,-3.593c-2.813,0.351 -5.814,1.916 -6.148,4.601c-0.298,2.397 0.024,7.551 2.428,9.426c0.815,1.418 2.1,2.509 3.899,2.858c4.027,0.788 8.685,-2.202 9.047,-6.343c0.062,-0.705 0.066,-1.404 0.021,-2.089c0.215,-1.588 -0.084,-3.278 -0.977,-4.86Z" style="fill:#75cabb;fill-rule:nonzero;"/><path d="M216.424,205.262c-0.062,-0.459 -0.202,-0.891 -0.394,-1.291c-0.254,-1.01 -0.795,-1.926 -1.656,-2.535c-1.601,-1.135 -3.476,-1.242 -4.941,-0.432c-0.469,0.211 -0.885,0.553 -1.211,1.012c-0.279,0.338 -0.526,0.717 -0.722,1.162c-0.395,0.896 -0.519,1.889 -0.413,2.857c0.033,0.703 0.23,1.434 0.626,2.157l0.062,0.097c0.262,0.776 0.677,1.459 1.311,1.91c0.592,0.426 1.298,0.573 2.017,0.534c1.009,0.115 2.055,-0.2 2.821,-0.836c1.911,-0.516 2.782,-2.52 2.5,-4.635Z" style="fill:#75cabb;fill-rule:nonzero;"/><path d="M258.698,211.094c-1.28,-0.654 -2.904,-0.225 -4.196,0.172c-0.485,0.148 -0.865,0.482 -1.164,0.902c-1.842,1.293 -2.028,4.047 -0.891,5.928c0.275,0.455 0.637,0.824 1.05,1.111c0.66,0.791 1.589,1.303 2.782,1.239c1.249,-0.067 2.226,-0.621 2.894,-1.442c0.625,-0.412 1.155,-0.984 1.477,-1.621c1.058,-2.099 0.145,-5.219 -1.952,-6.289Z" style="fill:#75cabb;fill-rule:nonzero;"/><path d="M228.825,233.243c-0.252,-0.526 -0.661,-0.982 -1.276,-1.052c-0.622,-0.072 -1.301,0.247 -1.797,0.591c-0.913,0.63 -1.479,1.833 -1.099,2.912c0.303,0.864 1.193,1.345 2.047,1.486c0.875,0.146 1.906,-0.252 2.352,-1.036c0.528,-0.927 0.489,-2.124 -0.227,-2.901Z" style="fill:#75cabb;fill-rule:nonzero;"/><path d="M522.329,54.865c-3.94,-0.532 -8.87,1.492 -8.46,6.064c0.35,3.984 4.42,6.59 8.1,5.487c2.41,-0.721 3.83,-3.168 3.79,-5.537c0.54,-2.623 -0.42,-5.608 -3.43,-6.014Z" style="fill:#9c3193;fill-rule:nonzero;"/><path d="M530.189,40.984c-0.29,-0.285 -0.65,-0.512 -1.04,-0.667c-0.25,-0.143 -0.51,-0.257 -0.8,-0.323c-1.36,-0.315 -2.55,0.295 -3.2,1.322c-0.53,0.606 -0.88,1.377 -0.96,2.199c-0.18,1.945 1.37,3.721 3.32,3.777c2.09,0.056 4.09,-1.978 4.02,-4.055c-0.03,-1.07 -0.57,-1.81 -1.34,-2.253Z" style="fill:#9c3193;fill-rule:nonzero;"/><path d="M395.499,193.579c-0.21,-0.439 -0.52,-0.775 -0.88,-1.033c-0.09,-0.09 -0.19,-0.176 -0.29,-0.256c-0.57,-0.447 -1.46,-0.511 -2.32,-0.422l-0.16,0.004c-0.33,0.026 -0.63,0.092 -0.92,0.182c-0.22,0.051 -0.42,0.107 -0.61,0.164c-1.19,0.369 -2.12,1.359 -2.62,2.467c-0.64,1.41 -0.11,2.818 0.71,3.992c0.8,1.151 2.67,1.342 3.93,1.315c1.45,-0.034 3,-1.102 3.51,-2.438c0.47,-1.191 0.19,-2.848 -0.35,-3.975Z" style="fill:#7d2817;fill-rule:nonzero;"/><path d="M407.279,189.96c-1.08,0.164 -1.76,1.088 -2.041,2.115c-0.599,1.405 -0.219,3.323 1.321,3.885c1.62,0.592 3.86,-0.59 4.299,-2.246c0.581,-2.14 -1.5,-4.07 -3.579,-3.754Z" style="fill:#7d2817;fill-rule:nonzero;"/><path d="M406.368,205.492c-0.479,-0.249 -1.12,-0.18 -1.589,0.029c-0.56,0.247 -0.911,0.64 -1.21,1.161c-0.3,0.524 -0.16,1.271 0.21,1.721c0.17,0.198 0.37,0.365 0.6,0.491c0.27,0.271 0.609,0.457 1.01,0.521c0.67,0.114 1.4,-0.265 1.78,-0.801c0.76,-1.064 0.319,-2.531 -0.801,-3.122Z" style="fill:#7d2817;fill-rule:nonzero;"/><g><path d="M205.759,168.715c0.402,-1.311 0.831,-2.608 1.167,-3.938c0.702,-2.799 1.343,-5.616 2.018,-8.421c0.479,-1.986 1.196,-4.323 1.498,-6.348c0,0 -6.106,-1.369 -7.638,-1.601c-1.425,-0.219 -2.852,-0.446 -4.273,-0.694c-3.024,-0.536 -6.026,-1.155 -9.052,-1.681c-1.173,-0.204 -2.356,-0.371 -3.547,-0.406c-1.307,-0.037 -0.835,-1.866 -0.788,-2.82c0.149,-2.922 0.416,-5.867 0.633,-8.788c0.42,-5.524 1.632,-10.961 2.617,-16.4c0.097,-0.556 0.31,-2.692 1.218,-2.294c0.807,0.349 12.777,2.042 12.777,2.042c0.272,-0.802 2.172,-11.922 2.444,-12.74c0.329,-0.997 -4.869,-2.647 -6.813,-3.066c-1.062,-0.231 -6.89,-1.386 -6.877,-1.916c0.041,-1.896 1.65,-6.485 2.699,-11.205c0.901,-4.049 1.645,-8.012 2.264,-12.044c0.661,0.125 1.371,0.376 1.927,0.475c1.556,0.27 3.033,0.662 4.559,1.039c2.828,0.694 5.723,1.077 8.58,1.609c2.787,0.525 5.591,0.983 8.412,1.281c1.629,0.172 3.265,0.279 4.886,0.497c1.448,0.2 5.447,1.093 5.447,1.093c0,0 0.606,-3.931 0.887,-5.323c0.209,-1.049 0.402,-2.238 0.768,-3.236c0.414,-1.138 1.518,-7.519 1.518,-7.519c-1.284,-1.067 -3.794,-1.401 -5.397,-1.625c-2.347,-0.329 -4.623,-1.176 -6.895,-1.842c-2.703,-0.793 -5.419,-1.541 -8.085,-2.452c-2.589,-0.887 -5.179,-1.835 -7.816,-2.567c-2.663,-0.737 -5.396,-1.13 -8.088,-1.746c-1.067,-0.245 -2.046,-0.722 -3.129,-0.911c-0.811,-0.139 -1.644,-0.658 -2.472,-0.665c-1.481,-0.014 -1.924,1.572 -2.349,2.719c-1.957,5.304 -2.201,11.035 -4.326,16.282c-0.828,2.054 -1.285,4.102 -1.847,6.237c-0.702,2.656 -9.756,43.253 -12.263,52.942c-1.493,5.776 -3.038,11.521 -4.235,17.367c-0.558,2.723 -1.038,5.493 -1.411,8.245c-0.238,1.781 -1.058,4.197 -0.276,5.907c0.626,1.369 3.631,1.318 4.795,1.454c2.973,0.345 14.299,2.953 16.999,4.023c2.685,1.064 5.565,1.424 8.399,1.849c2.177,0.331 4.06,1.336 6.294,1.47c1.652,0.097 3.255,0.248 3.255,0.248c0.531,-0.902 1.209,-3.54 1.516,-4.531Z" style="fill:#31409a;fill-rule:nonzero;"/><path d="M119.951,96.301c-0.996,-1.424 -2.125,-2.751 -3.394,-3.941c-0.642,-0.6 -1.338,-1.145 -2.044,-1.669c-0.712,-0.535 -2.423,-1.938 -3.261,-2.282c-3.946,-1.624 -4.649,-1.877 -7.818,-1.782c-2.105,0.062 -4.782,0.769 -6.801,1.459c-2.017,0.69 -4.078,2.003 -5.721,3.342c-1.529,1.245 -2.68,3.191 -3.333,4.96c-0.348,0.95 -0.347,2.554 -0.583,3.719c-2.379,-1.473 -5.284,-2.361 -8.037,-1.758c-1.802,0.396 -3.846,0.68 -5.523,1.422c-1.725,0.758 -4.636,2.333 -6.015,3.62c-3.093,2.883 -3.304,4.099 -3.929,7.345l-0.016,0.097c-0.461,-1.007 -0.92,-2.017 -1.411,-3.011c-0.819,-1.659 -1.688,-3.284 -2.276,-5.044c-0.295,-0.877 -0.855,-1.724 -0.855,-1.724c-0.481,0.1 -1.855,0.868 -2.28,1.101c-0.85,0.464 -1.758,0.819 -2.645,1.208c-1.693,0.741 -3.422,1.427 -5.004,2.384c-0.705,0.428 -5.162,3.237 -4.478,3.874c0.495,0.864 2.601,3.734 3.079,4.609c0.97,1.788 1.87,3.622 2.804,5.433c1.933,3.74 3.869,7.476 5.829,11.201c3.902,7.405 8.039,14.669 12.202,21.928c2.089,3.638 4.131,7.301 6.039,11.039c0.876,1.714 1.632,3.484 2.497,5.205c0.387,0.767 0.862,1.467 1.207,2.256c0.269,0.613 0.413,1.263 0.711,1.861c0.478,0.974 12.696,-6.042 12.696,-6.042c-1.599,-3.155 -3.429,-6.163 -5.035,-9.314c-1.924,-3.77 -3.494,-7.671 -5.225,-11.533c-1.658,-3.703 -3.618,-7.255 -5.533,-10.826c-1.469,-2.732 -2.749,-5.546 -4.089,-8.336c-0.001,-0.3 0.007,-0.603 0.052,-0.909c0.24,-1.744 1.581,-4.08 2.764,-5.351c1.986,-2.14 5.715,-2.152 7.916,-0.396c1.465,1.166 2.565,2.957 3.582,4.505c1.127,1.712 2.255,3.487 3.213,5.297c1.975,3.723 3.38,7.808 5.071,11.667c1.637,3.737 3.43,7.386 5.132,11.089c0.744,1.623 3.039,6.566 3.851,8.155c0,0 3.451,-0.68 4.418,-1.104c1.642,-0.719 3.274,-1.553 4.964,-2.145c0.843,-0.294 1.873,-0.34 2.521,-1.078c0,0 -1.325,-3.5 -1.62,-4.309c-0.568,-1.547 -3.343,-9.517 -3.787,-10.555c-1.578,-3.7 -2.987,-7.466 -4.6,-11.157c-2.956,-6.747 -5.905,-13.533 -9.403,-20.024c0.342,-0.4 0.709,-0.786 1.088,-1.155c1.843,-1.793 4.427,-3.485 7.07,-2.722c2.061,0.594 3.783,2.424 5.102,4.021c1.874,2.266 3.888,4.869 5.13,7.54c1.263,2.715 2.817,5.321 4.165,7.999c1.503,2.986 3.058,5.943 4.531,8.944c1.421,2.9 2.705,5.831 3.75,8.883c0.422,1.234 2.167,5.973 2.167,5.973c0,0 3.864,-1.956 5.141,-2.456c1.724,-0.676 3.452,-1.502 5.212,-2.07c0.835,-0.272 1.744,-0.634 1.744,-0.634c-0.204,-0.66 -0.917,-2.465 -1.071,-3.169c-0.216,-0.957 -0.686,-1.878 -1.009,-2.803c-1.272,-3.652 -2.848,-7.232 -3.943,-10.943c-1.113,-3.781 -2.737,-7.414 -4.188,-11.074c-2.869,-7.228 -6.256,-14.425 -10.721,-20.82Z" style="fill:#f05422;fill-rule:nonzero;"/><path d="M316.294,117.083c0.09,-1.736 0.017,-3.477 -0.252,-5.195c-0.138,-0.868 -0.351,-1.726 -0.585,-2.573c-0.233,-0.861 -0.72,-3.018 -1.168,-3.805c-2.114,-3.708 -2.512,-4.34 -5.07,-6.214c-1.698,-1.245 -4.244,-2.334 -6.26,-3.032c-2.015,-0.695 -4.447,-0.928 -6.566,-0.883c-1.971,0.042 -4.076,0.868 -5.679,1.862c-0.859,0.535 -1.845,1.801 -2.747,2.574c-0.97,-2.625 -2.714,-5.111 -5.256,-6.329c-1.664,-0.795 -3.452,-1.829 -5.229,-2.275c-1.827,-0.463 -5.091,-1.011 -6.971,-0.845c-4.21,0.372 -5.125,1.2 -7.614,3.376l-0.073,0.067c0.256,-1.078 0.515,-2.157 0.739,-3.242c0.375,-1.812 0.689,-3.629 1.308,-5.377c0.307,-0.873 0.386,-1.886 0.386,-1.886c-0.441,-0.217 -1.997,-0.456 -2.475,-0.533c-0.956,-0.157 -1.89,-0.436 -2.829,-0.675c-1.791,-0.456 -3.576,-0.979 -5.412,-1.197c-0.819,-0.096 -6.061,-0.622 -5.913,0.301c-0.141,0.985 -0.245,4.544 -0.407,5.527c-0.335,2.007 -0.753,4.006 -1.13,6.009c-0.775,4.138 -1.547,8.274 -2.292,12.418c-1.477,8.238 -2.682,16.511 -3.863,24.794c-0.59,4.154 -1.233,8.298 -2.027,12.419c-0.363,1.89 -0.856,3.751 -1.232,5.64c-0.166,0.843 -0.223,1.687 -0.436,2.521c-0.165,0.649 -0.451,1.25 -0.584,1.905c-0.222,1.062 13.728,3.043 13.728,3.043c0.678,-3.471 1.085,-6.968 1.757,-10.44c0.802,-4.157 1.962,-8.198 2.973,-12.308c0.969,-3.94 1.609,-7.946 2.294,-11.939c0.522,-3.058 1.243,-6.064 1.903,-9.089c0.184,-0.237 0.375,-0.471 0.599,-0.684c1.262,-1.228 3.756,-2.245 5.471,-2.52c2.881,-0.466 5.83,1.818 6.485,4.556c0.439,1.82 0.205,3.909 0.054,5.755c-0.164,2.043 -0.366,4.137 -0.724,6.153c-0.732,4.151 -2.136,8.235 -3.176,12.318c-1.007,3.954 -1.837,7.934 -2.773,11.901c-0.411,1.737 -1.641,7.047 -1.978,8.799c0,0 3.14,1.586 4.163,1.846c1.737,0.443 3.537,0.789 5.233,1.361c0.846,0.287 1.686,0.884 2.651,0.701c0,0 1.108,-3.575 1.372,-4.394c0.504,-1.569 3.217,-9.561 3.506,-10.653c1.03,-3.887 2.235,-7.724 3.233,-11.626c1.818,-7.138 3.667,-14.303 4.9,-21.572c0.516,-0.105 1.043,-0.184 1.569,-0.243c2.556,-0.279 5.634,-0.025 7.248,2.203c1.26,1.735 1.493,4.237 1.551,6.308c0.083,2.939 0.071,6.23 -0.592,9.1c-0.674,2.918 -1.051,5.928 -1.635,8.869c-0.651,3.279 -1.244,6.567 -1.928,9.839c-0.662,3.161 -1.452,6.262 -2.505,9.311c-0.426,1.232 -1.965,6.043 -1.965,6.043c0,0 4.25,0.834 5.564,1.224c1.775,0.528 3.647,0.939 5.384,1.574c0.825,0.299 1.765,0.572 1.765,0.572c0.245,-0.645 0.792,-2.507 1.103,-3.157c0.419,-0.887 0.615,-1.903 0.929,-2.832c1.243,-3.661 2.202,-7.454 3.62,-11.053c1.448,-3.666 2.402,-7.529 3.509,-11.308c2.182,-7.464 3.937,-15.222 4.349,-23.01Z" style="fill:#f05422;fill-rule:nonzero;"/><path d="M354.061,146.653c-1.44,-2.565 -2.96,-5.308 -3.61,-8.137c-2.32,-10.045 -3.99,-21.203 1.42,-30.684c1.25,-2.195 2.67,-4.159 4.36,-6.093c1.11,-1.283 2.24,-2.66 3.46,-3.932c0.92,-0.596 1.87,-1.15 2.86,-1.605c1.54,-0.705 3.3,-0.545 4.96,-0.545c1.6,0 3.19,-0.012 4.78,0.017c3.37,0.065 6.19,1.307 8.81,3.21c4.31,3.142 8.77,7.486 10.92,12.195c2.34,5.133 2.94,10.752 2.31,16.236c-0.62,5.527 -1.32,11.811 -3.89,16.893c-2.46,4.847 -6.4,9.996 -12.28,11.442c-2.981,0.731 -6.241,0.044 -9.241,-0.36c-3.089,-0.422 -6.279,-1.01 -9.029,-2.438c-2.69,-1.393 -4.44,-3.736 -5.83,-6.199Zm61.68,-38.014c-1.09,-4.988 -2.82,-9.873 -6.1,-14.008c-2.11,-2.647 -4.39,-5.201 -6.68,-7.71c-1.1,-1.206 -5.19,-8.419 -14.92,-12.494c-0.46,-0.196 -0.84,-0.553 -1.28,-0.809l-0.14,-0.094c-1.92,-0.963 -3.72,-1.852 -5.89,-2.258c-2.82,-0.531 -5.89,-0.512 -8.76,-0.391c-5.88,0.255 -11.6,2.432 -16.57,5.209c-9.75,5.45 -16.895,15.561 -20.254,25.434c-3.783,11.129 -3.083,23.266 -2.962,34.77c0.029,2.489 0.438,4.788 0.952,7.216c0.587,2.752 2.229,5.228 3.492,7.741c1.156,2.306 1.985,4.715 3.552,6.822c1.53,2.055 3.25,4.037 5.26,5.717c4.23,3.524 9.47,5.363 14.95,6.556c2.79,0.607 5.64,1.009 8.46,1.463c2.959,0.468 5.829,1.16 8.839,1.374c2.48,0.178 5.101,0.027 7.48,-0.674c2.871,-0.85 5.351,-2.592 7.731,-4.258c4.58,-3.202 9.14,-6.84 12.64,-11.055c3.53,-4.234 6.25,-9.725 7.83,-14.828c1.67,-5.406 2.84,-10.878 2.99,-16.516c0.14,-5.793 0.62,-11.471 -0.62,-17.207Z" style="fill:#44baeb;fill-rule:nonzero;"/><path d="M477.948,102.907c-1.456,1.201 -2.924,2.194 -4.707,2.834c-0.846,0.302 -1.678,0.597 -2.499,0.962c-0.232,0.101 -0.442,0.263 -0.662,0.403c-0.121,-0.234 -2.335,-8.416 -3.089,-11.844c-0.777,-3.529 -2.067,-6.963 -3.164,-10.405c-0.393,-1.228 -0.783,-2.453 -1.137,-3.691c-0.134,-0.464 -0.401,-1.248 -0.106,-1.306c0.56,-0.107 1.147,-0.107 1.712,-0.198c3.216,-0.495 6.568,-0.266 9.618,0.956c2.667,1.06 5.297,2.732 6.923,5.128c2.017,2.974 2.466,6.726 1.876,10.193c-0.205,1.216 -1.702,4.443 -4.765,6.968Zm39.831,33.63c-0.695,-0.958 -1.759,-0.689 -2.516,-0.035c-1.147,0.995 -2.213,2.119 -3.337,3.156c-2.094,-1.902 -4.278,-3.894 -5.529,-4.904c-4.314,-3.481 -8.302,-7.347 -11.994,-11.473c-0.801,-0.897 -1.898,-1.613 -2.795,-2.428c-1.106,-1.002 -6.513,-5.834 -7.006,-6.064c7.293,-6.246 16.421,-12.901 17.431,-23.204c0.597,-6.093 0.36,-8.131 -0.254,-13.078c-0.299,-2.41 -2.356,-7.876 -3.566,-10.014c-1.414,-2.504 -3.978,-7.321 -5.842,-9.517c-3.681,-4.337 -6.223,-6.066 -10.984,-9.11c-4.654,-2.972 -10.183,-4.471 -15.691,-5.446c-5.776,-1.022 -11.363,0.68 -16.981,1.921c-5.466,1.204 -10.87,3.049 -16.168,4.85c-2.59,0.877 -14.959,6.295 -15.977,7.029c0,0 0.384,1.819 0.727,3.447c0.57,2.701 1.185,5.371 1.964,8.019c0.782,2.662 1.968,5.216 2.61,7.911c0.667,2.786 1.524,5.506 2.116,8.311c0.325,1.54 1.707,5.217 1.707,5.217c0,0 3.613,-0.435 4.9,-0.812c2.737,-0.815 5.456,-1.748 8.117,-2.769c1.271,-0.489 2.477,-1.013 3.782,-1.402c0.638,-0.192 1.261,-0.428 1.89,-0.639c0.454,-0.15 0.913,-0.272 1.384,-0.361c0.385,-0.087 0.433,-0.072 0.129,0.038c1.863,4.911 2.863,10.227 4.261,15.292c1.653,5.981 3.081,11.968 5.262,17.789c2.222,5.919 6.393,24.994 6.573,26.394c0.305,2.38 0.975,4.621 1.472,6.975l1.625,7.705c-1.352,0.232 -5.098,1.305 -4.994,1.856c0.577,3.034 1.487,5.936 2.525,8.846c0.284,0.796 0.471,2.311 1.175,2.875c0.79,0.635 1.851,0.202 2.718,0.021c6.906,-1.442 13.794,-3.011 20.743,-4.164c1.259,-0.207 4.838,-1.021 4.838,-1.021c-0.097,-1.002 -0.634,-3.428 -0.95,-4.398c-0.486,-1.484 -0.668,-2.987 -1.054,-4.495c-0.391,-1.526 -1.502,-4.934 -1.502,-4.934c-0.428,0.093 -2.465,0.488 -2.953,0.565c-0.701,-2.158 -1.346,-4.145 -1.844,-5.586c-1.643,-4.747 -3.557,-9.392 -5.251,-14.118c-0.764,-2.121 -1.57,-4.222 -2.199,-6.391c-0.153,-0.512 -0.27,-1.027 -0.397,-1.541c1.053,1.55 16.527,16.527 23.14,23.168c-0.437,0.394 -0.869,0.794 -1.328,1.142c-0.801,0.607 -3.233,2.886 -3.233,2.886c1.215,1.467 4.712,5.745 5.854,7.278c0.577,0.775 2.019,3.07 2.019,3.07c0,0 3.525,-2.388 4.784,-3.123c3.532,-2.071 7.331,-3.387 10.409,-6.158c1.507,-1.358 7.995,-5.925 8.687,-7.34c0,0 -7.474,-9.825 -8.497,-11.236Z" style="fill:#31409a;fill-rule:nonzero;"/><path d="M606.116,133.025c-0.009,-2.878 -0.269,-5.752 -0.526,-8.614c-0.264,-2.944 -2.415,-29.373 -3.154,-31.703c-0.518,-1.626 -1.271,-7.156 -1.271,-7.156c-1.938,0.191 -5.585,0.536 -7.492,0.92c-1.094,0.225 -2.177,0.552 -3.235,0.915c-1.093,0.375 -2.176,0.259 -3.232,0.836c0,0 0.454,5.718 0.787,7.901c0.507,3.304 0.366,7.07 -0.431,10.313c-0.644,2.629 -1.52,4.612 -3.323,6.65c-2.246,2.539 -6.675,1.26 -8.648,-1.248c-1.423,-1.809 -1.275,-4.644 -1.351,-6.81c-0.112,-3.23 0.103,-6.472 0.467,-9.686c0.132,-1.163 0.014,-2.32 0.152,-3.487c0.074,-0.637 0.12,-1.48 -0.447,-1.943c0,0 -4.196,-0.816 -5.808,-0.898c-1.827,-0.091 -7.026,-0.202 -7.026,-0.202l-0.761,7.408c-0.672,5.74 -0.997,11.351 -0.063,17.083c0.783,4.812 3.041,9.691 6.649,13.023c1.662,1.533 3.47,2.586 5.647,3.222c2.333,0.682 5.291,0.181 7.668,-0.042c1.78,-0.163 3.397,-0.88 5,-1.623c2.067,-0.969 4.132,-1.834 6.05,-3.103c0.322,-0.211 0.63,-0.434 0.931,-0.661c0.188,5.568 -0.084,11.244 -1.591,16.616c-1.403,5.002 -5.445,10.094 -10.68,11.262c-2.353,0.525 -5.067,0.402 -7.409,-0.082c-2.901,-0.597 -9.807,-5.521 -12.72,-14.83c0,0 -8.618,1.687 -9.088,1.766c-0.795,0.126 -2.941,1.119 -2.941,1.119c-0.37,3.156 0.077,7.568 0.552,9.913c0.615,3.042 1.437,5.82 2.904,8.556c2.966,5.53 5.491,7.194 9.412,9.98c7.514,5.34 18.622,7.715 27.335,4.271c3.923,-1.553 7.281,-4.534 9.314,-8.221c2.659,-4.819 5.081,-10.044 6.426,-15.393c1.298,-5.163 1.918,-10.73 1.903,-16.052Z" style="fill:#f05422;fill-rule:nonzero;"/></g></g></svg>